<?xml version="1.0" encoding="UTF-8" standalone="no"?>
<!-- Created with Inkscape (http://www.inkscape.org/) -->

<svg
   width="54.2915mm"
   height="29.135757mm"
   viewBox="0 0 54.2915 29.135757"
   version="1.1"
   id="svg1"
   xml:space="preserve"
   inkscape:version="1.4.2 (ebf0e940d0, 2025-05-08)"
   sodipodi:docname="icon_cloud.svg"
   inkscape:export-filename="icon_cloud.png"
   inkscape:export-xdpi="150"
   inkscape:export-ydpi="150"
   xmlns:inkscape="http://www.inkscape.org/namespaces/inkscape"
   xmlns:sodipodi="http://sodipodi.sourceforge.net/DTD/sodipodi-0.dtd"
   xmlns="http://www.w3.org/2000/svg"
   xmlns:svg="http://www.w3.org/2000/svg"><sodipodi:namedview
     id="namedview1"
     pagecolor="#ffffff"
     bordercolor="#000000"
     borderopacity="0.25"
     inkscape:showpageshadow="2"
     inkscape:pageopacity="0.0"
     inkscape:pagecheckerboard="0"
     inkscape:deskcolor="#d1d1d1"
     inkscape:document-units="mm"
     inkscape:zoom="1.0343421"
     inkscape:cx="-51.240302"
     inkscape:cy="-51.723701"
     inkscape:window-width="1920"
     inkscape:window-height="1052"
     inkscape:window-x="0"
     inkscape:window-y="0"
     inkscape:window-maximized="1"
     inkscape:current-layer="layer1" /><defs
     id="defs1" /><g
     inkscape:label="Layer 1"
     inkscape:groupmode="layer"
     id="layer1"
     transform="translate(-110.18722,-73.026805)"><g
       style="fill:#0000ff;stroke-width:1.22386"
       id="g1"
       transform="matrix(1.4161384,0,0,1.4161384,109.7654,79.50151)"
       inkscape:export-filename="g1.png"
       inkscape:export-xdpi="150"
       inkscape:export-ydpi="150"><path
         d="m 1.4,1.7 c 0.216,0.289 0.65,0.84 1.725,1.274 1.093,0.44 2.884,0.774 5.834,0.528 l 0.37,-0.023 c 1.823,-0.06 3.117,0.598 3.956,1.579 C 14.16,6.082 14.5,7.41 14.5,8.5 c 0,0.58 -0.032,1.285 -0.229,1.997 q 0.198,0.248 0.382,0.54 c 0.756,1.2 1.19,2.563 1.348,3.966 a 1,1 0 0 1 -1.98,0.198 c -0.13,-0.97 -0.397,-1.913 -0.868,-2.77 C 12.173,13.386 10.565,14 8,14 6.146,14 4.68,13.456 3.55,12.565 2.425,11.678 1.66,10.47 1.159,9.182 0.16,6.62 0.16,3.646 0.509,1.902 L 0.73,0.806 Z M 1.35,3.09 c -0.146,1.609 -0.008,3.809 0.74,5.728 0.457,1.17 1.13,2.213 2.079,2.961 0.942,0.744 2.185,1.22 3.83,1.221 2.588,0 3.91,-0.66 4.609,-1.445 C 10.819,9.095 8.487,10.342 6.266,8.875 5.526,8.387 4.531,7.552 4.422,6.567 4.399,6.353 4.659,6.293 4.802,6.455 c 1.4,1.6 3.573,1.757 5.59,2.045 1.227,0.215 2.21,0.526 3.033,1.158 C 13.483,9.268 13.5,8.876 13.5,8.5 13.5,7.59 13.212,6.512 12.525,5.708 11.899,4.976 10.903,4.427 9.358,4.479 L 9.042,4.499 C 5.992,4.752 4.032,4.419 2.751,3.901 A 5.3,5.3 0 0 1 1.351,3.09"
         id="path1"
         style="fill:#0000ff;stroke-width:1.22386" /></g><g
       style="fill:#0000ff"
       id="g2"
       transform="matrix(1.8568193,0,0,1.8568193,134.76961,71.169986)"><path
         d="m 7,8 a 3.5,3.5 0 0 1 3.5,3.555 0.5,0.5 0 0 0 0.624,0.492 A 1.503,1.503 0 0 1 13,13.5 1.5,1.5 0 0 1 11.5,15 H 3 A 2,2 0 1 1 3.1,11.002 0.5,0.5 0 0 0 3.61,10.627 3.5,3.5 0 0 1 7,8 m 4.473,3 A 4.5,4.5 0 0 0 2.753,10.01 3,3 0 0 0 3,16 h 8.5 a 2.5,2.5 0 0 0 0,-5 z"
         id="path1-5"
         style="fill:#0000ff" /><path
         d="m 10.5,1.5 a 0.5,0.5 0 0 0 -1,0 v 1 a 0.5,0.5 0 0 0 1,0 z m 3.743,1.964 A 0.5,0.5 0 1 0 13.536,2.757 l -0.708,0.707 a 0.5006316,0.5006316 0 0 0 0.708,0.708 z M 6.464,2.757 A 0.5,0.5 0 0 0 5.757,3.464 L 6.464,4.172 A 0.5006316,0.5006316 0 1 0 7.172,3.464 Z m 1.734,3.374 a 2,2 0 1 1 3.296,2.198 q 0.3,0.423 0.516,0.898 A 3,3 0 1 0 7.17,6.002 q 0.529,0.017 1.028,0.129 m 4.484,4.074 c 0.6,0.215 1.125,0.59 1.522,1.072 a 0.5,0.5 0 0 0 0.039,-0.742 L 13.536,9.828 a 0.5,0.5 0 0 0 -0.854,0.377 M 14.5,6.5 a 0.5,0.5 0 0 0 0,1 h 1 a 0.5,0.5 0 0 0 0,-1 z"
         id="path2"
         style="fill:#0000ff" /></g></g></svg>
